# xmcd CD database file
#
# Track frame offsets:
#	150
#	20937
#	40277
#	59377
#	81042
#	100232
#	120205
#	142942
#	163442
#	184672
#	206642
#	223630
#	243087
#	261805
#	280387
#	300440
#
# Disc length: 4204 seconds
#
# Revision: 2
# Processed by: cddbd v1.5PL3 Copyright (c) Steve Scherf et al.
# Submitted via: CDex 1.51
#
DISCID=e2106a10
DTITLE=影山ヒロノブ - Eternity [CD3]
DYEAR=1997
DGENRE=Anime
TTITLE0=希望子午線〜ホライズン・ブルー〜
TTITLE1=FIGHT OH FIGHTING ROAD
TTITLE2=GO! GO! ぶーりん!!
TTITLE3=昨日の夢、今日の光−サイレントナイト・モーニングムーン−
TTITLE4=鬼神童子ZENKI
TTITLE5=CROSS FIRE!!
TTITLE6=僕たちのスタート
TTITLE7=永遠の約束
TTITLE8=運命という名の迷路
TTITLE9=超鬼神ZENKI、来迎聖臨！
TTITLE10=パワーアップ・タートルズ
TTITLE11=SIGN〜兆〜（きざし）
TTITLE12=NEVER ENDING,NEVER GIVE UP
TTITLE13=覚悟完了！
TTITLE14=ON THE VERGE OF REVIVAL
TTITLE15=Dokkan Beat
EXTD=YEAR: 1997
EXTT0=
EXTT1=
EXTT2=
EXTT3=
EXTT4=
EXTT5=
EXTT6=
EXTT7=
EXTT8=
EXTT9=
EXTT10=
EXTT11=
EXTT12=
EXTT13=
EXTT14=
EXTT15=
PLAYORDER=
